<?xml version="1.0" encoding="UTF-8"?>
<svg width="203px" height="48px" viewBox="0 0 203 48" version="1.1" xmlns="http://www.w3.org/2000/svg" xmlns:xlink="http://www.w3.org/1999/xlink">
    <title>logo/wordmark</title>
    <g id="Login-or-Request-Demo" stroke="none" stroke-width="1" fill="none" fill-rule="evenodd">
        <g id="Onboarding---Request-Demo-2" transform="translate(-32.000000, -92.000000)" fill="#00754A">
            <g id="logo/wordmark" transform="translate(32.000000, 92.000000)">
                <path d="M68.270064,12.48672 C66.666864,12.48672 65.163024,12.74016 63.797904,13.22976 L63.797904,22.45584 C64.622544,22.17936 65.526384,22.03104 66.497424,22.03104 C71.133264,22.03104 74.269104,25.37136 74.269104,30.21168 C74.269104,35.052 71.133264,38.39232 66.497424,38.39232 C61.861584,38.39232 58.726224,35.052 58.726224,30.21168 L58.726224,30.56112 L58.726224,30.21168 L58.726224,17.0544 L58.726224,0 L48.499824,0 L48.499824,29.87088 C48.499824,41.18736 56.135184,47.93616 66.429744,47.93616 C77.132784,47.93616 84.631344,40.64208 84.631344,29.80224 C84.631344,18.0768 75.905424,12.48672 68.270064,12.48672 M108.507504,12.48672 C106.904304,12.48672 105.400464,12.74016 104.035344,13.22976 L104.035344,22.45584 C104.859984,22.17936 105.763824,22.03104 106.734864,22.03104 C111.370704,22.03104 114.506544,25.37136 114.506544,30.21168 C114.506544,35.052 111.370704,38.39232 106.734864,38.39232 C102.099024,38.39232 98.963664,35.052 98.963664,30.21168 L98.963664,30.56112 L98.963664,30.21168 L98.963664,17.0544 L98.963664,0 L88.737264,0 L88.737264,29.87088 C88.737264,41.18736 96.372624,47.93616 106.667184,47.93616 C117.370224,47.93616 124.868784,40.64208 124.868784,29.80224 C124.868784,18.0768 116.142864,12.48672 108.507504,12.48672 M15.10704,12.550752 C6.12432,12.550752 1.42108547e-14,17.450112 1.42108547e-14,27.929952 L1.42108547e-14,47.051712 L5.11824,45.699072 L10.2072,47.051712 L10.2072,27.929952 C10.2072,23.438592 12.24912,22.077312 15.10704,22.077312 C17.96496,22.077312 20.0064,23.438592 20.0064,27.929952 L20.0064,28.202112 L25.27632,26.681952 L30.21408,28.202112 L30.21408,27.997632 C30.14592,17.381952 24.08976,12.550752 15.10704,12.550752 M33.9336,47.051712 L44.1408,47.051712 L44.1408,12.550752 L33.93312,12.550752 L33.9336,47.051712 Z M147.141072,38.4096 C142.513872,38.4096 139.383312,35.07504 139.383312,30.24336 C139.383312,25.41216 142.513872,22.0776 147.141072,22.0776 C151.768752,22.0776 154.898832,25.41216 154.898832,30.24336 C154.898832,35.07504 151.768752,38.4096 147.141072,38.4096 M147.141072,12.55056 C136.525392,12.55056 129.039792,20.03616 129.039792,30.24336 C129.039792,40.45056 136.525392,47.93664 147.141072,47.93664 C157.756752,47.93664 165.242352,40.45056 165.242352,30.24336 C165.242352,20.03616 157.756752,12.55056 147.141072,12.55056 M186.07968,12.550752 C176.14464,12.550752 169.47552,18.334752 169.47552,29.631072 L169.47552,47.051712 L179.6832,47.051712 L179.6832,29.631072 C179.6832,24.323232 182.26896,22.077312 186.07968,22.077312 C189.8904,22.077312 192.47616,24.323232 192.47616,29.631072 L192.47616,47.051712 L202.68384,47.051712 L202.68384,29.631072 C202.68384,18.266592 196.01472,12.550752 186.07968,12.550752" id="Combined-Shape"></path>
            </g>
        </g>
    </g>
</svg>